<?xml version="1.0" encoding="utf-8"?>
<!-- Generator: Adobe Illustrator 17.1.0, SVG Export Plug-In . SVG Version: 6.00 Build 0)  -->
<!DOCTYPE svg PUBLIC "-//W3C//DTD SVG 1.1//EN" "http://www.w3.org/Graphics/SVG/1.1/DTD/svg11.dtd">
<svg version="1.1" id="Layer_1" xmlns="http://www.w3.org/2000/svg" xmlns:xlink="http://www.w3.org/1999/xlink" x="0px" y="0px"
	 viewBox="0 0 38 36" enable-background="new 0 0 38 36" xml:space="preserve">
<image display="none" overflow="visible" enable-background="new    " width="768" height="3027" xlink:href="41A32990.jpeg"  transform="matrix(1 0 0 1 -37 -1206.5)">
</image>
<g>
	<rect x="25.9" y="3.9" transform="matrix(0.7163 0.6978 -0.6978 0.7163 15.0636 -15.3342)" fill="#6185BA" width="1" height="14"/>
</g>
<g>
	<rect x="19.5" y="24.6" transform="matrix(0.716 0.6981 -0.6981 0.716 25.0801 -11.3798)" fill="#6185BA" width="14" height="1"/>
</g>
<g>
	<rect x="12" y="18.3" transform="matrix(0.7163 0.6978 -0.6978 0.7163 21.1883 -1.5246)" fill="#6185BA" width="1" height="14"/>
</g>
<g>
	<rect x="5.3" y="10.4" transform="matrix(0.716 0.6981 -0.6981 0.716 11.0708 -5.4632)" fill="#6185BA" width="14" height="1"/>
</g>
<g>
	<path fill="#6185BA" d="M22.5,21.3h-6.1v-6.4h6.1V21.3z M17.4,20.3h4.1v-4.4h-4.1V20.3z"/>
</g>
</svg>
