<?xml version="1.0" encoding="utf-8"?>
<!-- Generator: Adobe Illustrator 13.0.0, SVG Export Plug-In . SVG Version: 6.00 Build 14948)  -->
<!DOCTYPE svg PUBLIC "-//W3C//DTD SVG 1.1//EN" "http://www.w3.org/Graphics/SVG/1.1/DTD/svg11.dtd">
<svg version="1.1" id="Layer_1" xmlns="http://www.w3.org/2000/svg" xmlns:xlink="http://www.w3.org/1999/xlink" x="0px" y="0px"
	 width="229.189px" height="94.694px" viewBox="0 0 229.189 94.694" enable-background="new 0 0 229.189 94.694"
	 xml:space="preserve">
<path fill="#FFFFFF" d="M118.734,66.782h3.014c0.42,0,0.817,0.037,1.191,0.115c0.375,0.074,0.701,0.205,0.98,0.394
	c0.279,0.188,0.501,0.439,0.665,0.756c0.163,0.319,0.246,0.716,0.246,1.199c0,0.474-0.077,0.869-0.229,1.189
	c-0.153,0.322-0.363,0.578-0.629,0.77c-0.27,0.192-0.586,0.327-0.952,0.407c-0.368,0.079-0.765,0.119-1.191,0.119h-1.307v3.164
	h-1.788V66.782z M120.522,70.22h1.191c0.161,0,0.313-0.016,0.465-0.046c0.147-0.031,0.282-0.083,0.4-0.157
	c0.118-0.07,0.215-0.169,0.287-0.295c0.072-0.127,0.109-0.285,0.109-0.476c0-0.207-0.05-0.374-0.146-0.499
	c-0.094-0.127-0.217-0.224-0.366-0.291c-0.148-0.07-0.314-0.112-0.498-0.134c-0.185-0.018-0.36-0.029-0.526-0.029h-0.917V70.22z"/>
<path fill="#FFFFFF" d="M125.954,66.78h3.141c0.413,0,0.804,0.041,1.174,0.121c0.371,0.081,0.695,0.215,0.976,0.4
	c0.276,0.188,0.498,0.44,0.664,0.758c0.163,0.316,0.247,0.712,0.247,1.188c0,0.572-0.149,1.06-0.448,1.46
	c-0.3,0.4-0.734,0.656-1.308,0.761l2.064,3.428h-2.143l-1.698-3.243h-0.882v3.243h-1.787V66.78z M127.741,70.141h1.056
	c0.161,0,0.33-0.006,0.508-0.02c0.181-0.01,0.345-0.045,0.488-0.101c0.146-0.059,0.267-0.148,0.36-0.271
	c0.097-0.121,0.145-0.296,0.145-0.518c0-0.204-0.042-0.37-0.128-0.492c-0.083-0.121-0.19-0.215-0.319-0.278
	c-0.13-0.066-0.278-0.11-0.447-0.134c-0.168-0.023-0.332-0.034-0.491-0.034h-1.171V70.141z"/>
<path fill="#FFFFFF" d="M132.945,70.839c0-0.65,0.11-1.237,0.326-1.766c0.218-0.527,0.522-0.977,0.911-1.347
	c0.391-0.371,0.853-0.654,1.386-0.854c0.535-0.197,1.121-0.297,1.754-0.297c0.636,0,1.219,0.1,1.753,0.297
	c0.537,0.2,0.999,0.483,1.389,0.854c0.388,0.37,0.692,0.819,0.91,1.347c0.217,0.528,0.327,1.115,0.327,1.766
	c0,0.649-0.11,1.237-0.327,1.765c-0.218,0.526-0.522,0.975-0.91,1.347c-0.39,0.37-0.852,0.654-1.389,0.853
	c-0.534,0.199-1.117,0.3-1.753,0.3c-0.633,0-1.219-0.101-1.754-0.3c-0.533-0.198-0.995-0.482-1.386-0.853
	c-0.389-0.372-0.693-0.82-0.911-1.347C133.056,72.076,132.945,71.488,132.945,70.839 M134.802,70.839
	c0,0.382,0.059,0.731,0.177,1.048c0.118,0.317,0.289,0.591,0.511,0.826c0.223,0.233,0.486,0.414,0.797,0.542
	c0.309,0.133,0.654,0.195,1.036,0.195c0.383,0,0.729-0.063,1.039-0.195c0.309-0.128,0.574-0.309,0.797-0.542
	c0.22-0.235,0.39-0.509,0.508-0.826c0.118-0.316,0.178-0.666,0.178-1.048c0-0.375-0.06-0.724-0.178-1.042
	c-0.118-0.32-0.288-0.6-0.508-0.833c-0.223-0.23-0.488-0.413-0.797-0.543c-0.31-0.131-0.656-0.196-1.039-0.196
	c-0.382,0-0.728,0.065-1.036,0.196c-0.311,0.13-0.574,0.313-0.797,0.543c-0.222,0.233-0.393,0.513-0.511,0.833
	C134.86,70.115,134.802,70.464,134.802,70.839"/>
<polygon fill="#FFFFFF" points="142.985,66.782 148.428,66.782 148.428,68.431 144.773,68.431 144.773,70.081 148.154,70.081 
	148.154,71.731 144.773,71.731 144.773,74.896 142.985,74.896 "/>
<rect x="149.688" y="66.78" fill="#FFFFFF" width="1.788" height="8.114"/>
<polygon fill="#FFFFFF" points="153.173,66.782 154.961,66.782 154.961,73.245 158.272,73.245 158.272,74.896 153.173,74.896 "/>
<polygon fill="#FFFFFF" points="159.327,66.782 164.841,66.782 164.841,68.431 161.115,68.431 161.115,69.945 164.633,69.945 
	164.633,71.596 161.115,71.596 161.115,73.245 165.046,73.245 165.046,74.896 159.327,74.896 "/>
<path fill="#FFFFFF" d="M175.176,68.89c-0.175-0.216-0.39-0.377-0.646-0.492c-0.257-0.114-0.551-0.173-0.889-0.173
	c-0.336,0-0.646,0.065-0.935,0.195c-0.284,0.129-0.533,0.312-0.744,0.544c-0.209,0.233-0.375,0.512-0.494,0.833
	c-0.118,0.318-0.177,0.666-0.177,1.041c0,0.383,0.059,0.731,0.177,1.049c0.119,0.317,0.283,0.591,0.488,0.826
	c0.204,0.233,0.449,0.414,0.728,0.543c0.279,0.132,0.578,0.195,0.899,0.195c0.366,0,0.69-0.077,0.975-0.23
	c0.281-0.15,0.515-0.365,0.699-0.641l1.488,1.112c-0.344,0.483-0.778,0.836-1.305,1.065c-0.527,0.23-1.071,0.345-1.628,0.345
	c-0.633,0-1.221-0.101-1.752-0.3c-0.536-0.198-0.997-0.482-1.389-0.853c-0.389-0.372-0.692-0.82-0.911-1.347
	c-0.217-0.527-0.326-1.115-0.326-1.766c0-0.648,0.109-1.237,0.326-1.765c0.219-0.528,0.522-0.977,0.911-1.347
	c0.392-0.371,0.853-0.655,1.389-0.854c0.531-0.197,1.119-0.298,1.752-0.298c0.229,0,0.467,0.023,0.717,0.063
	c0.249,0.043,0.492,0.109,0.732,0.201c0.241,0.092,0.472,0.214,0.693,0.365c0.223,0.154,0.421,0.342,0.598,0.563L175.176,68.89z"/>
<path fill="#FFFFFF" d="M177.286,70.839c0-0.65,0.109-1.237,0.326-1.766c0.218-0.527,0.523-0.977,0.911-1.347
	c0.391-0.371,0.854-0.654,1.389-0.854c0.532-0.197,1.119-0.297,1.751-0.297c0.636,0,1.219,0.1,1.755,0.297
	c0.535,0.2,0.998,0.483,1.386,0.854c0.39,0.37,0.694,0.819,0.912,1.347c0.216,0.528,0.325,1.115,0.325,1.766
	c0,0.649-0.109,1.237-0.325,1.765c-0.218,0.526-0.522,0.975-0.912,1.347c-0.388,0.37-0.851,0.654-1.386,0.853
	c-0.536,0.199-1.119,0.3-1.755,0.3c-0.632,0-1.219-0.101-1.751-0.3c-0.535-0.198-0.998-0.482-1.389-0.853
	c-0.388-0.372-0.693-0.82-0.911-1.347C177.396,72.076,177.286,71.488,177.286,70.839 M179.144,70.839
	c0,0.382,0.058,0.731,0.176,1.048c0.118,0.317,0.289,0.591,0.512,0.826c0.222,0.233,0.485,0.414,0.796,0.542
	c0.309,0.133,0.655,0.195,1.036,0.195c0.384,0,0.729-0.063,1.04-0.195c0.307-0.128,0.574-0.309,0.796-0.542
	c0.223-0.235,0.39-0.509,0.508-0.826c0.118-0.316,0.179-0.666,0.179-1.048c0-0.375-0.061-0.724-0.179-1.042
	c-0.118-0.32-0.285-0.6-0.508-0.833c-0.222-0.23-0.489-0.413-0.796-0.543c-0.311-0.131-0.656-0.196-1.04-0.196
	c-0.381,0-0.728,0.065-1.036,0.196c-0.311,0.13-0.574,0.313-0.796,0.543c-0.223,0.233-0.394,0.513-0.512,0.833
	C179.201,70.115,179.144,70.464,179.144,70.839"/>
<polygon fill="#FFFFFF" points="187.256,66.782 189.96,66.782 191.83,72.076 191.853,72.076 193.732,66.782 196.425,66.782 
	196.425,74.896 194.638,74.896 194.638,68.67 194.613,68.67 192.483,74.896 191.119,74.896 189.065,68.67 189.045,68.67 
	189.045,74.896 187.256,74.896 "/>
<path fill="#FFFFFF" d="M198.075,66.782h3.015c0.421,0,0.818,0.037,1.193,0.115c0.374,0.074,0.7,0.205,0.979,0.394
	c0.279,0.188,0.502,0.439,0.664,0.756c0.165,0.319,0.247,0.716,0.247,1.199c0,0.474-0.076,0.869-0.229,1.189
	c-0.153,0.322-0.362,0.578-0.628,0.77c-0.271,0.192-0.585,0.327-0.953,0.407c-0.367,0.079-0.765,0.119-1.19,0.119h-1.307v3.164
	h-1.79V66.782z M199.865,70.22h1.191c0.161,0,0.313-0.016,0.463-0.046c0.149-0.031,0.283-0.083,0.401-0.157
	c0.118-0.07,0.213-0.169,0.288-0.295c0.072-0.127,0.107-0.285,0.107-0.476c0-0.207-0.049-0.374-0.142-0.499
	c-0.097-0.127-0.218-0.224-0.369-0.291c-0.148-0.07-0.313-0.112-0.497-0.134c-0.186-0.018-0.36-0.029-0.528-0.029h-0.915V70.22z"/>
<path fill="#FFFFFF" d="M207.118,66.78h1.479l3.53,8.115h-2.017l-0.702-1.719h-3.151l-0.675,1.719h-1.973L207.118,66.78z
	 M207.806,69.144l-0.985,2.52h1.982L207.806,69.144z"/>
<polygon fill="#FFFFFF" points="212.94,66.782 215.371,66.782 218.819,72.42 218.844,72.42 218.844,66.782 220.631,66.782 
	220.631,74.896 218.293,74.896 214.751,69.118 214.729,69.118 214.729,74.896 212.94,74.896 "/>
<polygon fill="#FFFFFF" points="224.275,71.434 221.228,66.78 223.45,66.78 225.168,69.819 226.99,66.78 229.111,66.78 
	226.064,71.434 226.064,74.896 224.275,74.896 "/>
<path fill="#FFFFFF" d="M124.902,62.23h-6.168V32.806h13.138c5.574,0,10.11,4.536,10.11,10.112c0,5.574-4.536,10.11-10.11,10.11
	h-6.97V62.23z M124.902,46.859h6.97c2.173,0,3.942-1.769,3.942-3.941c0-2.175-1.77-3.942-3.942-3.942h-6.97V46.859z"/>
<path fill="#FFFFFF" d="M185.785,62.452c-8.22,0-14.907-6.688-14.907-14.909c0-8.221,6.688-14.908,14.907-14.908
	c8.223,0,14.908,6.687,14.908,14.908C200.693,55.765,194.008,62.452,185.785,62.452 M185.785,38.804
	c-4.819,0-8.739,3.921-8.739,8.74c0,4.819,3.92,8.741,8.739,8.741c4.818,0,8.74-3.922,8.74-8.741
	C194.525,42.725,190.604,38.804,185.785,38.804"/>
<path fill="#FFFFFF" d="M218.331,62.454c-8.22,0-14.909-6.689-14.909-14.911c0-8.221,6.689-14.908,14.909-14.908
	c4.094,0,8.052,1.712,10.858,4.697l-4.493,4.227c-1.671-1.776-3.932-2.756-6.365-2.756c-4.819,0-8.739,3.921-8.739,8.74
	c0,4.82,3.92,8.741,8.739,8.741c2.434,0,4.694-0.979,6.365-2.756l4.493,4.226C226.383,60.74,222.425,62.454,218.331,62.454"/>
<path fill="#FFFFFF" d="M168.13,42.917c0-5.576-4.534-10.11-10.11-10.11h-13.138v29.421h6.17v-9.201h4.226l4.778,9.201h6.952
	l-5.169-9.952C165.525,50.767,168.13,47.141,168.13,42.917 M151.052,38.976h6.968c2.172,0,3.942,1.769,3.942,3.942
	c0,2.173-1.771,3.941-3.942,3.941h-6.968V38.976z"/>
<path fill="#FFFFFF" d="M101.831,10.383l-10.462-0.008L97.36,0H13.507L6.763,11.683l5.222,9.065H0l41.922,72.619h13.501l5.236-9.053
	l5.99,10.38l41.78-72.364l0.147-0.26L101.831,10.383z M92.771,2.647L60.656,58.274L56.2,50.562l22.764-39.419l0.444-0.779H10.585
	l4.454-7.716H92.771z M46.499,33.763h16.345l-8.171,14.15L46.499,33.763z M66.649,68.664l-4.467-7.737l27.658-47.903l8.928,0.01
	L66.649,68.664z M43.442,33.763l23.207,40.2l34.414-59.605l4.456,7.712l-38.87,67.321L34.534,33.763H43.442z M70.353,20.748
	l-55.31-0.001l-4.457-7.736h64.232L70.353,20.748z M68.823,23.4l-4.454,7.714h-46.42l34.414,59.602h-8.907L4.586,23.4H68.823z
	 M31.473,33.763l27.658,47.903l-4.471,7.73l-32.12-55.633H31.473z"/>
<polygon fill="#FFFFFF" points="85.521,89.943 84.289,92.392 83.156,89.943 77.536,89.943 77.536,90.73 78.995,90.73 78.995,93.46 
	80.06,93.46 80.06,90.73 81.516,90.73 81.516,93.46 82.506,93.46 82.506,90.815 83.84,93.46 84.764,93.46 86.073,90.813 
	86.073,93.46 87.074,93.46 87.074,89.943 "/>
</svg>
