<?xml version="1.0" encoding="utf-8"?>
<!-- Generator: Adobe Illustrator 13.0.0, SVG Export Plug-In . SVG Version: 6.00 Build 14948)  -->
<!DOCTYPE svg PUBLIC "-//W3C//DTD SVG 1.1//EN" "http://www.w3.org/Graphics/SVG/1.1/DTD/svg11.dtd">
<svg version="1.1" id="Layer_1" xmlns="http://www.w3.org/2000/svg" xmlns:xlink="http://www.w3.org/1999/xlink" x="0px" y="0px"
	 width="189.453px" height="294.123px" viewBox="0 0 189.453 294.123" enable-background="new 0 0 189.453 294.123"
	 xml:space="preserve">
<path fill="#FFFFFF" d="M84.807,286.283h10.939c0,0.901,0.678,1.787,1.447,2.26c0.707,0.428,1.701,0.689,2.793,0.689
	c1.754,0,3.625-0.428,3.625-2.014c0-3.349-15.259-1.1-17.373-7.796c0.05,0.758,0.069,1.629,0.042,2.631l-9.039-0.016
	c0,0,0.35-5.486-4.632-4.903c-1.052,0.126-2.146,0.559-2.496,2.512v13.289h-9.692l-0.005-8.523l-0.009-5.181l0.014,0.031v-7.728
	h9.692v2.921c0,0,2.194-3.518,7.002-3.516c0.702,0.035,5.243-0.235,7.34,2.757c0,0,1.171,1.564,1.54,3.822
	c0.236-5.533,7.713-7.153,13.607-7.153c6.26,0,14.115,1.343,14.773,7.312l-10.877,0.016c-0.117-0.731-0.498-1.492-1.102-1.885
	c-0.6-0.384-1.428-0.561-2.295-0.561c-1.979,0-3.246,0.485-3.246,1.597c0,3.123,18.168,1.021,18.168,9.43
	c0,4.676-4.941,7.849-15.473,7.849C92.96,294.123,85.411,292.327,84.807,286.283 M117.449,285.757v-8.079h-3.051v-6.11h3.217v-6.685
	h9.6v6.685h5.805v6.11c2.32-4.219,7.75-6.737,14.318-6.737c9.648,0,15.654,4.953,16.084,12.106l-0.008-3.809l0.008,0.033l0.01-7.736
	h9.699v2.921c0,0,2.135-3.545,7.01-3.522c0.699,0.042,4.764-0.229,7.227,2.764c0.855,1.089,2.111,2.495,1.945,8.356l-9.045-0.007
	c0,0,0.34-5.486-4.641-4.912c-1.055,0.126-2.148,0.559-2.496,2.512v13.311h-9.709l-0.008-8.528h0.008v-0.255h-21.365
	c0,2.528,3.145,4.207,6.016,4.207c1.73,0,3.789-1.203,4.576-2.466h9.904c-1.875,5.301-8.779,7.647-15.156,7.647
	c-8.777,0-15.574-3.914-15.574-11.099c0-1.767,0.426-3.372,1.197-4.786h-5.805v6.87c0.188,2.813-0.742,3.339,3.957,3.388
	l0.004,5.513c-1.334,0.085-2.529,0.125-3.619,0.125C117.996,293.573,117.711,290.308,117.449,285.757 M142.189,279.414h10.309
	c0-1.951-2.705-2.974-4.723-3.098c-0.096-0.005-0.201-0.009-0.307-0.009C145.539,276.308,142.189,277.254,142.189,279.414
	 M32.296,290.282c-2.707-1.853-4.702-4.314-4.702-7.796c0-1.847,0.478-3.43,1.303-4.793h-4.066v15.264l-10.398-0.021v-15.242H0
	v-6.126h14.481c0.253-8.471-2.169-9.754,10.994-9.692l3.253,0.153v4.474c-4.423,0-3.954,0.192-3.954,5.065h4.724v5.25
	c0.76-0.984,1.711-1.851,2.805-2.622c2.153-1.51,4.866-2.599,8.163-3.054c0.208-0.022,0.434-0.048,0.652-0.073l0.068-0.009
	c0.867-0.091,1.768-0.133,2.709-0.133c1.019,0,1.98,0.049,2.898,0.148l0.074,0.01c0.216,0.025,0.424,0.057,0.633,0.089
	c3.305,0.469,5.927,1.58,8.046,3.021c2.838,1.947,4.769,4.512,4.769,7.843c0,3.761-1.944,6.348-4.684,8.251
	c-2.954,2.047-6.884,3.267-11.677,3.267C39.132,293.556,35.25,292.31,32.296,290.282 M40.884,277.429l-0.033,0.018
	c-0.126,0.064-0.253,0.14-0.375,0.216c-1.604,0.992-2.656,2.671-2.656,4.567c0,3.052,2.739,5.533,6.112,5.533
	c3.371,0,6.109-2.481,6.109-5.533c0-2.122-1.328-3.967-3.255-4.893c-0.854-0.419-1.821-0.644-2.854-0.644
	C42.818,276.693,41.785,276.962,40.884,277.429"/>
<path fill="#FFFFFF" d="M84.807,286.283h10.939c0,0.901,0.678,1.787,1.447,2.26c0.707,0.428,1.701,0.689,2.793,0.689
	c1.754,0,3.625-0.428,3.625-2.014c0-3.349-15.259-1.1-17.373-7.796c0.05,0.758,0.069,1.629,0.042,2.631l-9.039-0.016
	c0,0,0.35-5.486-4.632-4.903c-1.052,0.126-2.146,0.559-2.496,2.512v13.289h-9.692l-0.005-8.523l-0.009-5.181l0.014,0.031v-7.728
	h9.692v2.921c0,0,2.194-3.518,7.002-3.516c0.702,0.035,5.243-0.235,7.34,2.757c0,0,1.171,1.564,1.54,3.822
	c0.236-5.533,7.713-7.153,13.607-7.153c6.26,0,14.115,1.343,14.773,7.312l-10.877,0.016c-0.117-0.731-0.498-1.492-1.102-1.885
	c-0.6-0.384-1.428-0.561-2.295-0.561c-1.979,0-3.246,0.485-3.246,1.597c0,3.123,18.168,1.021,18.168,9.43
	c0,4.676-4.941,7.849-15.473,7.849C92.96,294.123,85.411,292.327,84.807,286.283 M117.449,285.757v-8.079h-3.051v-6.11h3.217v-6.685
	h9.6v6.685h5.805v6.11c2.32-4.219,7.75-6.737,14.318-6.737c9.648,0,15.654,4.953,16.084,12.106l-0.008-3.809l0.008,0.033l0.01-7.736
	h9.699v2.921c0,0,2.135-3.545,7.01-3.522c0.699,0.042,4.764-0.229,7.227,2.764c0.855,1.089,2.111,2.495,1.945,8.356l-9.045-0.007
	c0,0,0.34-5.486-4.641-4.912c-1.055,0.126-2.148,0.559-2.496,2.512v13.311h-9.709l-0.008-8.528h0.008v-0.255h-21.365
	c0,2.528,3.145,4.207,6.016,4.207c1.73,0,3.789-1.203,4.576-2.466h9.904c-1.875,5.301-8.779,7.647-15.156,7.647
	c-8.777,0-15.574-3.914-15.574-11.099c0-1.767,0.426-3.372,1.197-4.786h-5.805v6.87c0.188,2.813-0.742,3.339,3.957,3.388
	l0.004,5.513c-1.334,0.085-2.529,0.125-3.619,0.125C117.996,293.573,117.711,290.308,117.449,285.757 M142.189,279.414h10.309
	c0-1.951-2.705-2.974-4.723-3.098c-0.096-0.005-0.201-0.009-0.307-0.009C145.539,276.308,142.189,277.254,142.189,279.414
	 M32.296,290.282c-2.707-1.853-4.702-4.314-4.702-7.796c0-1.847,0.478-3.43,1.303-4.793h-4.066v15.264l-10.398-0.021v-15.242H0
	v-6.126h14.481c0.253-8.471-2.169-9.754,10.994-9.692l3.253,0.153v4.474c-4.423,0-3.954,0.192-3.954,5.065h4.724v5.25
	c0.76-0.984,1.711-1.851,2.805-2.622c2.153-1.51,4.866-2.599,8.163-3.054c0.208-0.022,0.434-0.048,0.652-0.073l0.068-0.009
	c0.867-0.091,1.768-0.133,2.709-0.133c1.019,0,1.98,0.049,2.898,0.148l0.074,0.01c0.216,0.025,0.424,0.057,0.633,0.089
	c3.305,0.469,5.927,1.58,8.046,3.021c2.838,1.947,4.769,4.512,4.769,7.843c0,3.761-1.944,6.348-4.684,8.251
	c-2.954,2.047-6.884,3.267-11.677,3.267C39.132,293.556,35.25,292.31,32.296,290.282 M40.884,277.429l-0.033,0.018
	c-0.126,0.064-0.253,0.14-0.375,0.216c-1.604,0.992-2.656,2.671-2.656,4.567c0,3.052,2.739,5.533,6.112,5.533
	c3.371,0,6.109-2.481,6.109-5.533c0-2.122-1.328-3.967-3.255-4.893c-0.854-0.419-1.821-0.644-2.854-0.644
	C42.818,276.693,41.785,276.962,40.884,277.429"/>
<path fill="#FFFFFF" d="M14.252,223.566h4.781c0.667,0,1.297,0.062,1.891,0.184c0.594,0.119,1.111,0.327,1.554,0.625
	c0.442,0.297,0.795,0.696,1.054,1.2c0.26,0.503,0.391,1.135,0.391,1.898c0,0.753-0.121,1.382-0.362,1.89
	c-0.244,0.513-0.577,0.918-1.001,1.22c-0.424,0.304-0.927,0.519-1.509,0.645c-0.583,0.129-1.213,0.19-1.89,0.19h-2.073v5.02h-2.836
	V223.566z M17.088,229.02h1.891c0.255,0,0.499-0.022,0.735-0.072c0.237-0.048,0.45-0.13,0.637-0.245
	c0.188-0.117,0.339-0.272,0.454-0.474c0.116-0.198,0.174-0.45,0.174-0.755c0-0.325-0.078-0.59-0.228-0.789
	c-0.152-0.201-0.347-0.354-0.583-0.465c-0.237-0.109-0.499-0.178-0.79-0.208c-0.292-0.029-0.572-0.045-0.836-0.045h-1.455V229.02z"
	/>
<path fill="#FFFFFF" d="M25.705,223.566h4.982c0.653,0,1.274,0.062,1.862,0.192c0.588,0.126,1.102,0.339,1.545,0.634
	c0.44,0.297,0.792,0.698,1.054,1.201c0.26,0.503,0.391,1.13,0.391,1.883c0,0.908-0.237,1.681-0.709,2.314
	c-0.474,0.639-1.165,1.042-2.074,1.21l3.273,5.438H32.63l-2.691-5.147h-1.398v5.147h-2.836V223.566z M28.541,228.893h1.673
	c0.252,0,0.524-0.01,0.807-0.028c0.286-0.016,0.544-0.073,0.773-0.162c0.229-0.091,0.422-0.232,0.571-0.428
	c0.153-0.192,0.228-0.467,0.228-0.816c0-0.329-0.066-0.589-0.199-0.782c-0.133-0.192-0.303-0.344-0.509-0.447
	c-0.206-0.102-0.442-0.173-0.709-0.207c-0.268-0.039-0.527-0.055-0.78-0.055h-1.855V228.893z"/>
<path fill="#FFFFFF" d="M36.794,230.002c0-1.031,0.174-1.963,0.518-2.8c0.345-0.836,0.827-1.55,1.445-2.138
	c0.619-0.587,1.352-1.035,2.2-1.352c0.849-0.315,1.776-0.474,2.78-0.474c1.008,0,1.933,0.158,2.781,0.474
	c0.851,0.316,1.584,0.765,2.203,1.352c0.615,0.588,1.098,1.302,1.442,2.138c0.347,0.837,0.521,1.769,0.521,2.8
	s-0.174,1.962-0.521,2.8c-0.344,0.835-0.827,1.549-1.442,2.137c-0.619,0.588-1.352,1.038-2.203,1.353
	c-0.848,0.317-1.773,0.473-2.781,0.473c-1.004,0-1.932-0.155-2.78-0.473c-0.848-0.314-1.581-0.765-2.2-1.353
	c-0.618-0.588-1.1-1.302-1.445-2.137C36.968,231.964,36.794,231.033,36.794,230.002 M39.739,230.002c0,0.605,0.092,1.162,0.28,1.663
	c0.188,0.503,0.457,0.939,0.811,1.308c0.351,0.372,0.771,0.66,1.263,0.862c0.49,0.209,1.038,0.31,1.644,0.31
	c0.607,0,1.155-0.101,1.647-0.31c0.49-0.202,0.911-0.49,1.263-0.862c0.351-0.368,0.621-0.805,0.809-1.308
	c0.187-0.501,0.28-1.058,0.28-1.663c0-0.593-0.094-1.146-0.28-1.654c-0.188-0.508-0.458-0.949-0.809-1.317
	c-0.352-0.368-0.773-0.656-1.263-0.862c-0.492-0.206-1.04-0.31-1.647-0.31c-0.606,0-1.154,0.104-1.644,0.31
	c-0.492,0.206-0.912,0.494-1.263,0.862c-0.354,0.368-0.623,0.81-0.811,1.317C39.832,228.855,39.739,229.409,39.739,230.002"/>
<polygon fill="#FFFFFF" points="52.717,223.566 61.352,223.566 61.352,226.184 55.554,226.184 55.554,228.803 60.916,228.803 
	60.916,231.418 55.554,231.418 55.554,236.438 52.717,236.438 "/>
<rect x="63.351" y="223.566" fill="#FFFFFF" width="2.837" height="12.871"/>
<polygon fill="#FFFFFF" points="68.878,223.566 71.715,223.566 71.715,233.819 76.967,233.819 76.967,236.438 68.878,236.438 "/>
<polygon fill="#FFFFFF" points="78.639,223.566 87.383,223.566 87.383,226.184 81.476,226.184 81.476,228.583 87.058,228.583 
	87.058,231.201 81.476,231.201 81.476,233.819 87.71,233.819 87.71,236.438 78.639,236.438 "/>
<path fill="#FFFFFF" d="M103.779,226.911c-0.279-0.339-0.619-0.599-1.029-0.782c-0.402-0.181-0.873-0.272-1.406-0.272
	s-1.027,0.104-1.48,0.31c-0.453,0.208-0.85,0.493-1.182,0.862c-0.332,0.37-0.594,0.812-0.783,1.319
	c-0.188,0.508-0.281,1.062-0.281,1.654c0,0.605,0.094,1.162,0.281,1.663c0.189,0.503,0.447,0.938,0.773,1.308
	c0.328,0.372,0.711,0.66,1.154,0.865c0.441,0.206,0.918,0.31,1.428,0.31c0.582,0,1.094-0.122,1.545-0.366
	c0.447-0.241,0.816-0.579,1.109-1.016l2.361,1.763c-0.545,0.765-1.232,1.328-2.072,1.689c-0.834,0.365-1.695,0.546-2.578,0.546
	c-1.01,0-1.936-0.157-2.785-0.473c-0.846-0.314-1.578-0.767-2.197-1.354c-0.621-0.588-1.102-1.3-1.445-2.137
	c-0.346-0.836-0.518-1.769-0.518-2.798s0.172-1.963,0.518-2.8c0.344-0.838,0.824-1.55,1.445-2.138
	c0.619-0.587,1.352-1.035,2.197-1.354c0.85-0.313,1.775-0.473,2.785-0.473c0.363,0,0.738,0.036,1.131,0.101
	c0.398,0.068,0.783,0.174,1.168,0.32c0.379,0.145,0.75,0.338,1.1,0.581c0.35,0.242,0.666,0.54,0.945,0.892L103.779,226.911z"/>
<path fill="#FFFFFF" d="M107.127,230.002c0-1.031,0.172-1.963,0.518-2.8c0.346-0.836,0.826-1.55,1.445-2.138
	c0.617-0.587,1.352-1.035,2.199-1.352c0.848-0.315,1.775-0.474,2.781-0.474s1.93,0.158,2.781,0.474
	c0.848,0.316,1.582,0.765,2.201,1.352c0.617,0.588,1.098,1.302,1.441,2.138c0.348,0.837,0.521,1.769,0.521,2.8
	s-0.174,1.962-0.521,2.8c-0.344,0.835-0.824,1.549-1.441,2.137c-0.619,0.588-1.354,1.038-2.201,1.353
	c-0.852,0.317-1.775,0.473-2.781,0.473s-1.934-0.155-2.781-0.473c-0.848-0.314-1.582-0.765-2.199-1.353
	c-0.619-0.588-1.1-1.302-1.445-2.137C107.299,231.964,107.127,231.033,107.127,230.002 M110.07,230.002
	c0,0.605,0.094,1.162,0.283,1.663c0.184,0.503,0.453,0.939,0.809,1.308c0.35,0.372,0.771,0.66,1.264,0.862
	c0.488,0.209,1.035,0.31,1.645,0.31c0.605,0,1.152-0.101,1.646-0.31c0.49-0.202,0.91-0.49,1.264-0.862
	c0.352-0.368,0.619-0.805,0.807-1.308c0.188-0.501,0.281-1.058,0.281-1.663c0-0.593-0.094-1.146-0.281-1.654
	s-0.455-0.949-0.807-1.317c-0.354-0.368-0.773-0.656-1.264-0.862c-0.494-0.206-1.041-0.31-1.646-0.31
	c-0.609,0-1.156,0.104-1.645,0.31c-0.492,0.206-0.914,0.494-1.264,0.862c-0.355,0.368-0.625,0.81-0.809,1.317
	C110.164,228.855,110.07,229.409,110.07,230.002"/>
<polygon fill="#FFFFFF" points="122.941,223.566 127.229,223.566 130.195,231.964 130.23,231.964 133.213,223.566 137.484,223.566 
	137.484,236.438 134.648,236.438 134.648,226.565 134.613,226.565 131.232,236.438 129.066,236.438 125.813,226.565 
	125.777,226.565 125.777,236.438 122.941,236.438 "/>
<path fill="#FFFFFF" d="M140.104,223.566h4.781c0.664,0,1.295,0.062,1.889,0.184c0.594,0.119,1.111,0.327,1.557,0.625
	c0.441,0.297,0.791,0.696,1.051,1.2c0.262,0.503,0.395,1.135,0.395,1.898c0,0.753-0.125,1.382-0.367,1.89
	c-0.242,0.513-0.574,0.918-0.996,1.22c-0.426,0.304-0.93,0.519-1.51,0.645c-0.584,0.129-1.213,0.19-1.891,0.19h-2.072v5.02h-2.836
	V223.566z M142.939,229.02h1.889c0.256,0,0.5-0.022,0.736-0.072c0.234-0.048,0.449-0.13,0.637-0.245
	c0.188-0.117,0.34-0.272,0.453-0.474c0.115-0.198,0.174-0.45,0.174-0.755c0-0.325-0.078-0.59-0.227-0.789
	c-0.154-0.201-0.346-0.354-0.584-0.465c-0.236-0.109-0.498-0.178-0.789-0.208c-0.293-0.029-0.57-0.045-0.834-0.045h-1.455V229.02z"
	/>
<path fill="#FFFFFF" d="M154.443,223.566h2.348l5.598,12.871h-3.197l-1.113-2.725h-4.998l-1.07,2.725h-3.127L154.443,223.566z
	 M155.535,227.312l-1.563,3.998h3.145L155.535,227.312z"/>
<polygon fill="#FFFFFF" points="163.678,223.566 167.531,223.566 173.002,232.512 173.041,232.512 173.041,223.566 175.875,223.566 
	175.875,236.438 172.168,236.438 166.551,227.274 166.516,227.274 166.516,236.438 163.678,236.438 "/>
<polygon fill="#FFFFFF" points="181.66,230.946 176.822,223.566 180.35,223.566 183.076,228.385 185.965,223.566 189.33,223.566 
	184.496,230.946 184.496,236.438 181.66,236.438 "/>
<path fill="#FFFFFF" d="M24.038,216.348h-9.785v-46.67h20.838c8.843,0,16.038,7.192,16.038,16.036
	c0,8.841-7.194,16.036-16.038,16.036H24.038V216.348z M24.038,191.966h11.053c3.446,0,6.252-2.805,6.252-6.252
	s-2.806-6.252-6.252-6.252H24.038V191.966z"/>
<path fill="#FFFFFF" d="M120.607,216.702c-13.039,0-23.648-10.61-23.648-23.65c0-13.038,10.609-23.646,23.648-23.646
	s23.646,10.608,23.646,23.646C144.254,206.092,133.646,216.702,120.607,216.702 M120.607,179.189
	c-7.645,0-13.861,6.22-13.861,13.862c0,7.646,6.217,13.864,13.861,13.864c7.643,0,13.863-6.219,13.863-13.864
	C134.471,185.409,128.25,179.189,120.607,179.189"/>
<path fill="#FFFFFF" d="M172.23,216.702c-13.039,0-23.65-10.61-23.65-23.65c0-13.038,10.611-23.646,23.65-23.646
	c6.492,0,12.768,2.716,17.223,7.453l-7.129,6.702c-2.648-2.817-6.236-4.371-10.094-4.371c-7.646,0-13.863,6.22-13.863,13.862
	c0,7.646,6.217,13.866,13.863,13.866c3.857,0,7.445-1.554,10.094-4.372l7.129,6.7C184.998,213.984,178.723,216.702,172.23,216.702"
	/>
<path fill="#FFFFFF" d="M92.603,185.714c0-8.842-7.192-16.036-16.036-16.036h-20.84v46.667h9.787V201.75h6.702l7.582,14.595h11.028
	l-8.201-15.787C88.472,198.166,92.603,192.415,92.603,185.714 M65.514,179.462h11.054c3.447,0,6.252,2.805,6.252,6.252
	s-2.805,6.252-6.252,6.252H65.514V179.462z"/>
<path fill="#FFFFFF" d="M177.264,16.473l-16.596-0.014L170.172,0H37.167l-10.7,18.532l8.283,14.38H15.741l66.498,115.185h21.41
	l8.307-14.359l9.504,16.464l66.266-114.782l0.24-0.41L177.264,16.473z M162.891,4.2l-50.941,88.232l-7.064-12.231l36.105-62.527
	l0.707-1.235H32.532L39.597,4.2H162.891z M89.499,53.557h25.923l-12.961,22.444L89.499,53.557z M121.459,108.915l-7.084-12.275
	l43.869-75.979l14.16,0.012L121.459,108.915z M84.647,53.557l36.812,63.76l54.586-94.542l7.064,12.234l-61.65,106.78l-50.94-88.232
	H84.647z M127.334,32.912L39.602,32.91l-7.07-12.271h101.884L127.334,32.912z M124.906,37.116l-7.066,12.239H44.211l54.588,94.537
	H84.669L23.017,37.116H124.906z M65.665,53.557l43.867,75.978l-7.09,12.264L51.495,53.557H65.665z"/>
<polygon fill="#FFFFFF" points="151.389,142.664 149.436,146.551 147.641,142.664 138.727,142.664 138.727,143.913 141.041,143.913 
	141.041,148.245 142.729,148.245 142.729,143.913 145.039,143.913 145.039,148.245 146.609,148.245 146.609,144.052 
	148.727,148.245 150.191,148.245 152.27,144.047 152.27,148.245 153.855,148.245 153.855,142.664 "/>
</svg>
